# xmcd
#
# Track frame offsets: 
#        150
#        18076
#        36506
#        52613
#        68482
#        86610
#        105040
#        117554
#        131455
#        148765
#        166660
#        184258
#        199363
#
# Disc length: 2840 seconds
#
# Revision: 0
# Processed by: cddbd v1.5.2PL0 Copyright (c) Steve Scherf et al.
# Submitted via: ExactAudioCopy v0.99pb3
#
DISCID=a50b160d
DTITLE=Cesar e Matheus - Momentos Vol 03
DYEAR=2001
DGENRE=Ballad
TTITLE0=Bandida
TTITLE1=Sem Voce
TTITLE2=Homem Objeto
TTITLE3=Falta Coragem
TTITLE4=Seu Veneno
TTITLE5=Sai de Mim Paixao
TTITLE6=Porre de Alegria - Mixiraca
TTITLE7=Essa Da de Dez
TTITLE8=Reflexao
TTITLE9=Dono de Seu Coracao
TTITLE10=O Que Eu Quero
TTITLE11=Festa da Horra
TTITLE12=Erros
EXTD=
EXTT0=
EXTT1=
EXTT2=
EXTT3=
EXTT4=
EXTT5=
EXTT6=
EXTT7=
EXTT8=
EXTT9=
EXTT10=
EXTT11=
EXTT12=
PLAYORDER=
